<?xml version="1.0" encoding="iso-8859-1"?>
<!-- Generator: Adobe Illustrator 16.0.0, SVG Export Plug-In . SVG Version: 6.00 Build 0)  -->
<!DOCTYPE svg PUBLIC "-//W3C//DTD SVG 1.1//EN" "http://www.w3.org/Graphics/SVG/1.1/DTD/svg11.dtd">
<svg version="1.1" id="Capa_1" xmlns="http://www.w3.org/2000/svg" xmlns:xlink="http://www.w3.org/1999/xlink" x="0px" y="0px"
	 width="335.284px" height="335.284px" viewBox="0 0 335.284 335.284" style="enable-background:new 0 0 335.284 335.284;"
	 xml:space="preserve">
<g>
	<g>
		<path d="M184.642,57.982l32.72,32.727c6.605,6.59,17.366,6.59,24.031-0.033c3.183-3.216,4.948-7.464,4.948-11.995
			c0-4.533-1.766-8.788-4.978-12.009L179.748,5.065c-1.574-1.601-3.423-2.864-5.72-3.825C171.963,0.412,169.81,0,167.639,0
			c-2.183,0-4.341,0.412-6.494,1.291c-2.141,0.877-4.026,2.15-5.509,3.688L93.918,66.684c-3.204,3.203-4.981,7.47-4.981,12.01
			c0,4.524,1.777,8.797,4.993,12.027c6.623,6.584,17.366,6.584,24.007-0.006l32.717-32.72v170.476h33.981V57.982H184.642z"/>
		<path d="M287.948,228.471h-2.228H184.642v18.699c0,9.373-7.632,17.005-17.003,17.005c-9.352,0-16.984-7.626-16.984-17.005v-18.699
			h-101.1h-2.213H15.588v50.236c0,31.201,25.4,56.577,56.601,56.577h190.904c31.207,0,56.602-25.376,56.602-56.577v-50.236H287.948
			L287.948,228.471z"/>
	</g>
</g>
<g>
</g>
<g>
</g>
<g>
</g>
<g>
</g>
<g>
</g>
<g>
</g>
<g>
</g>
<g>
</g>
<g>
</g>
<g>
</g>
<g>
</g>
<g>
</g>
<g>
</g>
<g>
</g>
<g>
</g>
</svg>
